<?xml version="1.0" encoding="UTF-8"?>
<svg xmlns="http://www.w3.org/2000/svg" width="0" height="0" style="position: absolute;">
  <defs>
    <g id="searchIcon">
      <circle cx="10" cy="10" r="7" fill="none" stroke="currentColor" stroke-width="1.5"/>
      <line x1="15" y1="15" x2="20" y2="20" stroke="currentColor" stroke-width="1.5" stroke-linecap="round"/>
    </g>

    <g id="userIcon">
      <!-- Hoofd (cirkel) -->
      <circle cx="12" cy="8" r="4" fill="none" stroke="currentColor" stroke-width="1.5"/>
      <!-- Lichaam/schouders (pad) -->
      <path d="M4 20 C4 16, 7 14, 12 14 C17 14, 20 16, 20 20" fill="none" stroke="currentColor" stroke-width="1.5" stroke-linecap="round"/>
    </g>

    <g id="heartIcon">
      <path d="M12 21 C12 21, 4 14, 4 9 C4 6, 6 4, 8 4 C10 4, 11 5, 12 7 C13 5, 14 4, 16 4 C18 4, 20 6, 20 9 C20 14, 12 21, 12 21 Z" 
            fill="none" stroke="currentColor" stroke-width="1.5" stroke-linejoin="round"/>
    </g>
    
    <g id="bagIcon">
      <!-- Tas rechthoek -->
      <rect x="5" y="7" width="14" height="14" rx="2" fill="none" stroke="currentColor" stroke-width="1.5"/>
      <!-- Handvat -->
      <path d="M9 10 L9 7 C9 5.3, 10.3 4, 12 4 C13.7 4, 15 5.3, 15 7 L15 10" 
            fill="none" stroke="currentColor" stroke-width="1.5" stroke-linecap="round"/>
    </g>

    <g id="starIcon">
      <path d="M12 3 L14.5 9 H21 L15.5 13 L17.5 19 L12 15.5 L6.5 19 L8.5 13 L3 9 H9.5 Z"
        fill="#FF8204"
        stroke="#FF8204"
        stroke-width="1.5"
        stroke-linejoin="round"/>
    </g>

    <g id="plusIcon" width="24" height="24" viewBox="0 0 24 24" fill="none" stroke="currentColor" stroke-width="1" stroke-linecap="butt" stroke-linejoin="miter">
      <line x1="12" y1="6" x2="12" y2="18"/>
      <line x1="6" y1="12" x2="18" y2="12"/>
    </g>

    <g id="pijllinksIcon">
      <path 
        d="M 30.2676 15.1283 L 27.6734 12.48 L 16.0395 24.1139 L 27.4456 35.52 L 30.0398 32.8718 L 21.282 24.1139 L 30.2676 15.1283 Z"
        fill="rgb(86,85,84)"
        stroke="currentColor"
        stroke-width="1"
        stroke-linecap="butt"
        stroke-linejoin="miter"
      />
    </g>

    <g id="pijlrechtsIcon" viewBox="0 0 48 48">
      <path 
        d="M 13.7324 15.1283 L 16.3266 12.48 L 27.9605 24.1139 L 16.5544 35.52 L 13.9602 32.8718 L 22.718 24.1139 L 13.7324 15.1283 Z"
        fill="rgb(86,85,84)"
        stroke="currentColor"
        stroke-width="1"
        stroke-linecap="butt"
        stroke-linejoin="miter"
      />
    </g>

    <g id="closeIcon">
      <line 
        x1="16" y1="16" x2="32" y2="32" 
        stroke="currentColor" 
        stroke-width="2" 
        stroke-linecap="butt" 
        stroke-linejoin="miter"
      />
      <line 
        x1="32" y1="16" x2="16" y2="32" 
        stroke="currentColor" 
        stroke-width="2" 
        stroke-linecap="butt" 
        stroke-linejoin="miter"
      />
    </g>


  </defs>



</svg>