<svg width="39" height="27" viewBox="0 0 39 27" fill="none" xmlns="http://www.w3.org/2000/svg">
<g clip-path="url(#clip0_25_863)">
<path d="M11.6932 3.66621C11.6932 3.66621 11.6564 3.66621 11.6381 3.66621C11.4068 3.63738 11.2416 3.4283 11.271 3.20119C11.528 1.20053 13.4664 0.101061 13.5508 0.0541989C13.7564 -0.0611549 14.0134 0.0109412 14.1309 0.209206C14.2484 0.40747 14.1749 0.663411 13.973 0.778765C13.973 0.778765 12.3209 1.72683 12.1154 3.30213C12.0897 3.51121 11.9061 3.66621 11.6932 3.66621Z" fill="#2C2A29"/>
<path d="M13.3199 4.95292H13.3125C13.0776 4.94931 12.8903 4.75826 12.8977 4.52755C12.9527 1.97174 15.4052 0.994839 15.5116 0.955186C15.7282 0.872276 15.9779 0.976815 16.0623 1.1895C16.1468 1.40218 16.0403 1.6437 15.8237 1.73022C15.7392 1.76266 13.7898 2.55212 13.7457 4.54557C13.7421 4.77268 13.5512 4.95292 13.3199 4.95292Z" fill="#2C2A29"/>
<path d="M27.3111 3.66652C27.1019 3.66652 26.9183 3.51151 26.8889 3.30243C26.6833 1.71992 25.0496 0.789881 25.0313 0.782671C24.8257 0.667317 24.7559 0.414981 24.8734 0.213112C24.9909 0.0148474 25.2479 -0.0572487 25.4535 0.0581051C25.5342 0.104968 27.4727 1.20443 27.7333 3.19789C27.7627 3.42499 27.5975 3.63407 27.3662 3.66291C27.3478 3.66291 27.3295 3.66291 27.3111 3.66291V3.66652Z" fill="#2C2A29"/>
<path d="M25.6804 4.95342C25.4491 4.95342 25.2618 4.77318 25.2545 4.54608C25.2104 2.5382 23.1986 1.73794 23.1802 1.73073C22.9636 1.64782 22.8535 1.40269 22.9416 1.19001C23.026 0.977323 23.272 0.869179 23.4923 0.955694C23.5951 0.995347 26.0512 1.97225 26.1062 4.52806C26.1099 4.75876 25.9263 4.94982 25.6914 4.95342H25.684H25.6804Z" fill="#2C2A29"/>
<path d="M14.6591 19.9378C14.861 19.9378 15.0262 19.7791 15.0262 19.5773C15.0262 19.3754 14.861 19.2168 14.6591 19.2168C14.4572 19.2168 14.292 19.379 14.292 19.5773C14.292 19.7755 14.4572 19.9378 14.6591 19.9378Z" fill="#2C2A29"/>
<path d="M16.2785 20.6011C16.4804 20.6011 16.6456 20.4425 16.6456 20.2407C16.6456 20.0388 16.4841 19.8838 16.2785 19.8838C16.0729 19.8838 15.915 20.0424 15.915 20.2407C15.915 20.4389 16.0766 20.6011 16.2785 20.6011Z" fill="#2C2A29"/>
<path d="M13.7158 20.5107C13.5138 20.5107 13.3486 20.673 13.3486 20.8712C13.3486 21.0695 13.5138 21.2317 13.7158 21.2317C13.9177 21.2317 14.0829 21.0695 14.0829 20.8712C14.0829 20.673 13.9177 20.5107 13.7158 20.5107Z" fill="#2C2A29"/>
<path d="M24.3437 19.9378C24.5456 19.9378 24.7108 19.7791 24.7108 19.5773C24.7108 19.3754 24.5456 19.2168 24.3437 19.2168C24.1418 19.2168 23.9766 19.379 23.9766 19.5773C23.9766 19.7755 24.1418 19.9378 24.3437 19.9378Z" fill="#2C2A29"/>
<path d="M22.7285 20.6011C22.9304 20.6011 23.0919 20.4425 23.0919 20.2407C23.0919 20.0388 22.9304 19.8838 22.7285 19.8838C22.5265 19.8838 22.3613 20.0424 22.3613 20.2407C22.3613 20.4389 22.5229 20.6011 22.7285 20.6011Z" fill="#2C2A29"/>
<path d="M25.291 20.5107C25.089 20.5107 24.9238 20.673 24.9238 20.8712C24.9238 21.0695 25.089 21.2317 25.291 21.2317C25.4929 21.2317 25.6581 21.0695 25.6581 20.8712C25.6581 20.673 25.4929 20.5107 25.291 20.5107Z" fill="#2C2A29"/>
<path d="M38.868 20.8901L32.223 19.8231C33.1812 17.0222 32.1643 14.5168 31.4337 11.6762C30.6994 8.83565 31.6282 6.58986 31.6282 6.58986L25.8386 10.6345H25.343V8.55808C25.343 8.17597 25.2182 7.81189 24.9942 7.53071C24.807 7.2964 24.4913 7.03685 23.9846 6.89627V5.64179C23.9846 4.54593 23.2137 2.5741 20.4565 2.21002C20.541 2.06943 20.5924 1.90722 20.5924 1.73779C20.5924 1.18625 20.1041 0.739258 19.502 0.739258C18.8999 0.739258 18.4116 1.18625 18.4116 1.73779C18.4116 1.91082 18.463 2.06943 18.5475 2.21002C15.7903 2.5741 15.0194 4.54593 15.0194 5.64179V6.89627C14.5127 7.03685 14.1933 7.2964 14.0098 7.53071C13.7858 7.81189 13.661 8.17597 13.661 8.55808V10.6345H13.1654L7.37577 6.58986C7.37577 6.58986 8.30461 8.83565 7.57035 11.6762C6.8361 14.5168 5.82282 17.0222 6.78103 19.8231L0.132339 20.8901C0.051571 20.9081 -0.00349817 20.9622 0.000173113 21.0199C0.00751567 21.0776 0.07727 21.1172 0.158038 21.1172L7.12613 20.6594C7.295 21.0055 7.50427 21.3624 7.75024 21.7228L1.22638 23.9073C1.14928 23.9362 1.10156 23.9975 1.11991 24.0551C1.13827 24.1128 1.2117 24.1381 1.29246 24.1236L8.32663 22.4871C8.54691 22.7502 8.78554 23.0134 9.04988 23.2729L2.99961 26.5641C2.92985 26.6073 2.89314 26.6758 2.92251 26.7299C2.94821 26.784 3.02531 26.7948 3.1024 26.7696L9.76945 23.9254C11.8327 25.6268 14.9827 27.0039 19.4983 27.0039H19.513C24.0287 27.0039 27.175 25.6268 29.2419 23.9254L35.909 26.7696C35.9861 26.7984 36.0632 26.784 36.0888 26.7299C36.1145 26.6758 36.0815 26.6073 36.0118 26.5641L29.9615 23.2729C30.2258 23.0134 30.4644 22.7538 30.6847 22.4871L37.7189 24.1236C37.7997 24.1381 37.8731 24.1092 37.8914 24.0551C37.9061 23.9975 37.8621 23.9362 37.785 23.9073L31.2611 21.7228C31.5071 21.3624 31.7164 21.0019 31.8852 20.6594L38.8533 21.1172C38.9341 21.1172 39.0038 21.0776 39.0112 21.0199C39.0185 20.9622 38.9598 20.9081 38.879 20.8901H38.868ZM24.517 7.8984C24.6565 8.07504 24.7336 8.30935 24.7336 8.55808V10.2055H21.6497V8.55808C21.6497 8.30935 21.7268 8.07504 21.8663 7.8984C22.1343 7.55955 22.5822 7.39013 23.1916 7.39013C23.8011 7.39013 24.2453 7.55955 24.517 7.8984ZM19.502 1.32684C19.7737 1.32684 19.9903 1.51069 19.9903 1.73418C19.9903 1.95768 19.781 2.13432 19.5204 2.14153H19.48C19.2193 2.13071 19.0101 1.95408 19.0101 1.73418C19.0101 1.51429 19.2303 1.32684 19.4983 1.32684H19.502ZM15.6251 5.64179C15.6251 5.52284 15.6692 2.74353 19.4726 2.74353H19.5277C23.3312 2.74353 23.3752 5.52284 23.3752 5.64179V6.80254C23.3128 6.80254 23.2577 6.79173 23.1916 6.79173C22.1857 6.79173 21.657 7.19186 21.389 7.53071C21.3744 7.55234 21.3597 7.57397 21.345 7.5956C21.3303 7.57397 21.3193 7.55234 21.3009 7.53071C21.0329 7.19547 20.5006 6.79173 19.4983 6.79173C18.4961 6.79173 17.9637 7.19186 17.6957 7.53071C17.6811 7.55234 17.6664 7.57397 17.6517 7.5956C17.637 7.57397 17.626 7.55234 17.6076 7.53071C17.3396 7.19547 16.8073 6.79173 15.805 6.79173C15.7389 6.79173 15.6839 6.79894 15.6215 6.80254V5.64179H15.6251ZM21.0403 8.55808V10.2055H17.9564V8.55808C17.9564 8.30935 18.0335 8.07504 18.173 7.8984C18.441 7.55955 18.8889 7.39013 19.4983 7.39013C20.1078 7.39013 20.552 7.55955 20.8237 7.8984C20.9632 8.07504 21.0403 8.30935 21.0403 8.55808ZM14.2668 8.55808C14.2668 8.30935 14.3439 8.07504 14.4834 7.8984C14.7514 7.55955 15.1993 7.39013 15.805 7.39013C16.4108 7.39013 16.8587 7.55955 17.1304 7.8984C17.2699 8.07504 17.347 8.30935 17.347 8.55808V10.2055H14.2631V8.55808H14.2668ZM12.9194 12.1377H12.9267C14.2117 12.1377 15.2543 13.1614 15.2543 14.4231C15.2543 15.6848 14.2447 16.6761 12.9855 16.7049C13.1874 16.5355 13.9107 15.8218 13.9107 14.4159C13.9107 12.6676 12.9231 12.1413 12.9157 12.1341C12.9047 12.1413 11.8914 12.7036 11.8914 14.3582C11.8914 15.7929 12.6698 16.5283 12.8827 16.7049C11.6198 16.6797 10.6028 15.6668 10.6028 14.4231C10.6028 13.1794 11.6381 12.1449 12.9194 12.1377ZM19.5057 25.8287C14.8028 25.8287 10.992 23.8028 10.992 21.2975C10.992 18.7921 14.8028 16.7662 19.5057 16.7662C24.2086 16.7662 28.0157 18.7957 28.0157 21.2975C28.0157 23.7992 24.2049 25.8287 19.5057 25.8287ZM26.1177 16.7085C26.3306 16.5355 27.1089 15.7965 27.1089 14.3618C27.1089 12.7108 26.092 12.1449 26.0846 12.1377C26.0773 12.1413 25.0897 12.6676 25.0897 14.4195C25.0897 15.8254 25.8129 16.5355 26.0149 16.7085C24.7593 16.6761 23.746 15.6668 23.746 14.4267C23.746 13.1867 24.7886 12.1413 26.0736 12.1413H26.0809C27.3622 12.1485 28.3975 13.1686 28.3975 14.4267C28.3975 15.6848 27.3806 16.6869 26.1177 16.7085Z" fill="#2C2A29"/>
<path d="M24.0693 22.5843C24.0693 22.5843 23.0634 23.6622 21.973 23.6622C20.9377 23.6622 19.8841 22.5194 19.8841 21.3983V20.0249C20.4788 19.7798 21.7601 18.565 21.7601 18.1108C21.7601 17.7142 21.0956 17.3682 19.5059 17.3682C17.9163 17.3682 17.2518 17.7142 17.2518 18.1108C17.2518 18.565 18.5257 19.7726 19.1241 20.0213V21.3947C19.1241 22.5158 18.0705 23.6586 17.0352 23.6586C15.9448 23.6586 14.9462 22.5915 14.9389 22.5807C14.7993 22.4257 14.557 22.4149 14.3992 22.5519C14.2413 22.6889 14.2303 22.9268 14.3698 23.0818C14.4175 23.1359 15.5997 24.4047 17.0352 24.4047C18.0337 24.4047 18.9956 23.7234 19.5059 22.8042C20.0162 23.727 20.9781 24.4047 21.9767 24.4047C23.4122 24.4047 24.5906 23.1359 24.642 23.0818C24.7816 22.9268 24.7705 22.6925 24.6127 22.5555C24.4548 22.4185 24.2162 22.4293 24.073 22.5807L24.0693 22.5843Z" fill="#2C2A29"/>
</g>
<defs>
<clipPath id="clip0_25_863">
<rect width="39" height="27" fill="white"/>
</clipPath>
</defs>
</svg>
