<?xml version="1.0" encoding="UTF-8"?>
<svg id="Laag_2" data-name="Laag 2" xmlns="http://www.w3.org/2000/svg" viewBox="0 0 18 18">
  <defs>
    <style>
      .cls-1 {
        stroke: #000;
        stroke-miterlimit: 10;
        stroke-width: .25px;
      }
    </style>
  </defs>
  <path class="cls-1" d="M13.04,12.16c.65-.52,1.16-1.58,1.53-3.19.32-2.16-.44-3.93-1.63-5.55-1.78-1.81-3.85-2.48-6.16-2.24C4.22,1.9,2.51,3.24,1.67,5.22c-.72,1.59-.82,3.19-.21,4.78.44,1.33,1.32,2.46,2.48,3.46,1.53.84,3.04,1.3,4.51,1.1,1.44-.26,2.72-.75,3.75-1.6l3.75,3.64.73-.73-3.64-3.72ZM7.83,13.48c-3.09,0-5.6-2.51-5.6-5.6S4.74,2.29,7.83,2.29s5.6,2.51,5.6,5.6-2.51,5.6-5.6,5.6Z"/>
</svg>